<mxfile host="app.diagrams.net" modified="2023-04-04T07:17:25.686Z" agent="Mozilla/5.0 (Macintosh; Intel Mac OS X 10_15_7) AppleWebKit/537.36 (KHTML, like Gecko) Chrome/111.0.0.0 Safari/537.36 Edg/111.0.1661.62" version="21.1.2" etag="HLbkztp3_9KjiLWOVoOX" type="github">
  <diagram name="第 1 页" id="ktJiBsXEnZB3NEcP5Auq">
    <mxGraphModel>
      <root>
        <mxCell id="0" />
        <mxCell id="1" parent="0" />
      </root>
    </mxGraphModel>
  </diagram>
</mxfile>
